<svg width="800" height="800" viewBox="0 0 800 800" fill="none" xmlns="http://www.w3.org/2000/svg">
<g clip-path="url(#clip0_13_55)">
<path d="M400 0C179.1 0 0 179.075 0 400C0 620.925 179.075 800 400 800C620.925 800 800 620.925 800 400C800 179.075 620.925 0 400 0ZM400 750.8C207 750.8 50 593 50 400C50 207 207 50 400 50C593 50 750 207 750 400C750 593 593 750.8 400 750.8ZM559.65 253.65L324.95 489.8L219.25 384.125C209.5 374.375 193.65 374.375 183.875 384.125C174.1 393.875 174.1 409.7 183.875 419.475L307.625 543.225C317.375 552.975 333.225 552.975 343 543.225C344.125 542.1 345.1 540.875 345.975 539.6L595.025 289C604.775 279.25 604.775 263.4 595.025 253.625C585.275 243.85 569.425 243.9 559.65 253.65Z" fill="white"/>
</g>
<defs>
<clipPath id="clip0_13_55">
<rect width="800" height="800" fill="white"/>
</clipPath>
</defs>
</svg>
