<svg width="365" height="365" viewBox="0 0 365 365" fill="none" xmlns="http://www.w3.org/2000/svg">
<path d="M182.5 319.375C258.094 319.375 319.375 258.094 319.375 182.5C319.375 106.906 258.094 45.625 182.5 45.625C106.906 45.625 45.625 106.906 45.625 182.5C45.625 258.094 106.906 319.375 182.5 319.375Z" stroke="white" stroke-width="66.6667" stroke-linecap="round" stroke-linejoin="round"/>
<path d="M220.521 138.142L218.335 136.321C212.868 131.765 205.979 129.271 198.863 129.271H163.49C148.791 129.271 136.875 141.187 136.875 155.885C136.875 170.584 148.791 182.5 163.49 182.5H201.51C216.209 182.5 228.125 194.416 228.125 209.115C228.125 223.813 216.209 235.729 201.51 235.729H158.349C150.43 235.729 142.824 232.64 137.146 227.121L136.875 226.858" stroke="white" stroke-width="66.6667" stroke-linecap="round" stroke-linejoin="round"/>
<path d="M182.5 121.667V106.458" stroke="white" stroke-width="66.6667" stroke-linecap="round" stroke-linejoin="round"/>
<path d="M182.5 258.542V243.333" stroke="white" stroke-width="66.6667" stroke-linecap="round" stroke-linejoin="round"/>
</svg>
